<?xml version="1.0" encoding="UTF-8" standalone="no"?>
<!-- Created with Inkscape (http://www.inkscape.org/) -->

<svg
   width="297mm"
   height="210mm"
   viewBox="0 0 297 210"
   version="1.1"
   id="svg1"
   inkscape:version="1.3.2 (091e20e, 2023-11-25)"
   sodipodi:docname="pot_sym.svg"
   xmlns:inkscape="http://www.inkscape.org/namespaces/inkscape"
   xmlns:sodipodi="http://sodipodi.sourceforge.net/DTD/sodipodi-0.dtd"
   xmlns="http://www.w3.org/2000/svg"
   xmlns:svg="http://www.w3.org/2000/svg">
  <sodipodi:namedview
     id="namedview1"
     pagecolor="#ffffff"
     bordercolor="#000000"
     borderopacity="0.25"
     inkscape:showpageshadow="2"
     inkscape:pageopacity="0.0"
     inkscape:pagecheckerboard="0"
     inkscape:deskcolor="#d1d1d1"
     inkscape:document-units="mm"
     inkscape:zoom="3.7095118"
     inkscape:cx="602.1008"
     inkscape:cy="391.42617"
     inkscape:window-width="2560"
     inkscape:window-height="1387"
     inkscape:window-x="0"
     inkscape:window-y="25"
     inkscape:window-maximized="0"
     inkscape:current-layer="layer1" />
  <defs
     id="defs1">
    <marker
       style="overflow:visible"
       id="marker53"
       refX="0"
       refY="0"
       orient="auto"
       inkscape:stockid="Stop"
       markerWidth="1"
       markerHeight="1"
       viewBox="0 0 1 1"
       inkscape:isstock="true"
       inkscape:collect="always"
       preserveAspectRatio="xMidYMid">
      <path
         style="fill:none;stroke:context-stroke;stroke-width:1"
         d="M 0,4 V -4"
         id="path53" />
    </marker>
    <marker
       style="overflow:visible"
       id="Stop"
       refX="0"
       refY="0"
       orient="auto"
       inkscape:stockid="Stop"
       markerWidth="1"
       markerHeight="1"
       viewBox="0 0 1 1"
       inkscape:isstock="true"
       inkscape:collect="always"
       preserveAspectRatio="xMidYMid">
      <path
         style="fill:none;stroke:context-stroke;stroke-width:1"
         d="M 0,4 V -4"
         id="path23" />
    </marker>
    <marker
       style="overflow:visible"
       id="Triangle"
       refX="0"
       refY="0"
       orient="auto-start-reverse"
       inkscape:stockid="Triangle arrow"
       markerWidth="1"
       markerHeight="1"
       viewBox="0 0 1 1"
       inkscape:isstock="true"
       inkscape:collect="always"
       preserveAspectRatio="xMidYMid">
      <path
         transform="scale(0.5)"
         style="fill:context-stroke;fill-rule:evenodd;stroke:context-stroke;stroke-width:1pt"
         d="M 5.77,0 -2.88,5 V -5 Z"
         id="path135" />
    </marker>
    <marker
       style="overflow:visible"
       id="Triangle-7"
       refX="0"
       refY="0"
       orient="auto-start-reverse"
       inkscape:stockid="Triangle arrow"
       markerWidth="1"
       markerHeight="1"
       viewBox="0 0 1 1"
       inkscape:isstock="true"
       inkscape:collect="always"
       preserveAspectRatio="xMidYMid">
      <path
         transform="scale(0.5)"
         style="fill:context-stroke;fill-rule:evenodd;stroke:context-stroke;stroke-width:1pt"
         d="M 5.77,0 -2.88,5 V -5 Z"
         id="path135-3" />
    </marker>
    <marker
       style="overflow:visible"
       id="Triangle-3"
       refX="0"
       refY="0"
       orient="auto-start-reverse"
       inkscape:stockid="Triangle arrow"
       markerWidth="1"
       markerHeight="1"
       viewBox="0 0 1 1"
       inkscape:isstock="true"
       inkscape:collect="always"
       preserveAspectRatio="xMidYMid">
      <path
         transform="scale(0.5)"
         style="fill:context-stroke;fill-rule:evenodd;stroke:context-stroke;stroke-width:1pt"
         d="M 5.77,0 -2.88,5 V -5 Z"
         id="path135-9" />
    </marker>
    <marker
       style="overflow:visible"
       id="Triangle-7-4"
       refX="0"
       refY="0"
       orient="auto-start-reverse"
       inkscape:stockid="Triangle arrow"
       markerWidth="1"
       markerHeight="1"
       viewBox="0 0 1 1"
       inkscape:isstock="true"
       inkscape:collect="always"
       preserveAspectRatio="xMidYMid">
      <path
         transform="scale(0.5)"
         style="fill:context-stroke;fill-rule:evenodd;stroke:context-stroke;stroke-width:1pt"
         d="M 5.77,0 -2.88,5 V -5 Z"
         id="path135-3-8" />
    </marker>
    <marker
       style="overflow:visible"
       id="Triangle-7-4-6"
       refX="0"
       refY="0"
       orient="auto-start-reverse"
       inkscape:stockid="Triangle arrow"
       markerWidth="1"
       markerHeight="1"
       viewBox="0 0 1 1"
       inkscape:isstock="true"
       inkscape:collect="always"
       preserveAspectRatio="xMidYMid">
      <path
         transform="scale(0.5)"
         style="fill:context-stroke;fill-rule:evenodd;stroke:context-stroke;stroke-width:1pt"
         d="M 5.77,0 -2.88,5 V -5 Z"
         id="path135-3-8-2" />
    </marker>
    <marker
       style="overflow:visible"
       id="Triangle-7-4-6-4"
       refX="0"
       refY="0"
       orient="auto-start-reverse"
       inkscape:stockid="Triangle arrow"
       markerWidth="1"
       markerHeight="1"
       viewBox="0 0 1 1"
       inkscape:isstock="true"
       inkscape:collect="always"
       preserveAspectRatio="xMidYMid">
      <path
         transform="scale(0.5)"
         style="fill:context-stroke;fill-rule:evenodd;stroke:context-stroke;stroke-width:1pt"
         d="M 5.77,0 -2.88,5 V -5 Z"
         id="path135-3-8-2-4" />
    </marker>
    <marker
       style="overflow:visible"
       id="Triangle-38"
       refX="0"
       refY="0"
       orient="auto-start-reverse"
       inkscape:stockid="Triangle arrow"
       markerWidth="1"
       markerHeight="1"
       viewBox="0 0 1 1"
       inkscape:isstock="true"
       inkscape:collect="always"
       preserveAspectRatio="xMidYMid">
      <path
         transform="scale(0.5)"
         style="fill:context-stroke;fill-rule:evenodd;stroke:context-stroke;stroke-width:1pt"
         d="M 5.77,0 -2.88,5 V -5 Z"
         id="path135-5" />
    </marker>
  </defs>
  <g
     inkscape:label="Livello 1"
     inkscape:groupmode="layer"
     id="layer1">
    <ellipse
       style="fill:none;stroke-width:0.425;stroke:#000000;stroke-opacity:1"
       id="path1"
       cx="67.902016"
       cy="42.795387"
       rx="24.250719"
       ry="24.108068"
       inkscape:export-filename="ringsym.png"
       inkscape:export-xdpi="96"
       inkscape:export-ydpi="96" />
    <path
       style="fill:none;stroke:#000000;stroke-width:0.394061"
       d="m 92.020197,44.448341 c 10e-7,2.687204 -10.864343,4.865614 -24.266192,4.865614 -13.401848,0 -24.266192,-2.17841 -24.266191,-4.865614"
       transform="rotate(-0.19128131)"
       id="path8" />
    <path
       style="fill:none;stroke:#000000;stroke-width:0.394;stroke-dasharray:1.57599998,0.39399999;stroke-dashoffset:0"
       d="m 43.487814,44.448341 c 10e-7,-2.687204 10.864345,-4.865613 24.266191,-4.865613 13.401847,0 24.266191,2.178409 24.266192,4.865613"
       transform="rotate(-0.19128131)"
       id="path7" />
    <path
       style="fill:none;stroke:#000000;stroke-width:0.372136;stroke-dasharray:none;stroke-dashoffset:0;stroke-opacity:1;marker-end:url(#Triangle)"
       d="M 68.156507,44.140228 H 135.73123"
       id="path9" />
    <path
       style="fill:none;stroke:#000000;stroke-width:0.372136;stroke-dasharray:none;stroke-dashoffset:0;stroke-opacity:1;marker-end:url(#Triangle-3)"
       d="M 68.156507,44.140228 40.336539,59.831514"
       id="path9-7"
       sodipodi:nodetypes="cc" />
    <path
       style="fill:none;stroke:#000000;stroke-width:0.372136;stroke-dasharray:1.48854399,0.372136;stroke-dashoffset:0;stroke-opacity:1;marker-end:url(#Triangle-7)"
       d="M 67.885774,62.434122 V 16.278501"
       id="path9-9"
       sodipodi:nodetypes="cc" />
    <path
       style="fill:none;stroke:#000000;stroke-width:0.36776;stroke-dasharray:1.47104001,0.36776;stroke-dashoffset:0"
       d="m 77.080907,22.959182 c 1.192432,0 1.851661,8.93539 1.851661,19.836204 0,10.900814 -0.655718,19.851721 -1.84815,19.851723"
       id="path11"
       sodipodi:nodetypes="csc" />
    <path
       style="fill:none;stroke:#000000;stroke-width:0.393999"
       d="m 75.152622,65.654521 c -1.18176,-2e-6 -2.13977,-10.234384 -2.13977,-22.859133 0,-12.624749 0.95801,-22.85913 2.13977,-22.859132"
       id="path10" />
    <path
       style="fill:none;stroke:#000000;stroke-width:0.383903;stroke-dasharray:1.53561199,0.383903;stroke-dashoffset:0"
       d="m 80.086765,42.795387 c 0,11.957832 -0.960267,21.651571 -2.144817,21.651573"
       id="path14" />
    <path
       style="fill:none;stroke:#000000;stroke-width:0.383903;stroke-dasharray:1.53561199,0.383903;stroke-dashoffset:0"
       d="m 77.941948,21.143814 c 1.18455,2e-6 2.144817,9.693741 2.144817,21.651573"
       id="path13" />
    <path
       style="fill:none;stroke:#000000;stroke-width:0.383903"
       d="m 75.797131,42.795387 c 0,-11.957832 0.960267,-21.651571 2.144817,-21.651573"
       id="path12" />
    <path
       style="fill:none;stroke:#000000;stroke-width:0.383903"
       d="m 77.941948,64.44696 c -1.18455,-2e-6 -2.144817,-9.693741 -2.144817,-21.651573"
       id="path10-2" />
    <path
       style="fill:#00ffff;fill-opacity:0.32493702;stroke:#00ffff;stroke-width:0.401437;stroke-dasharray:1.51664, 0.37916;stroke-dashoffset:0;stroke-opacity:1"
       d="m 276.72188,162.75727 c 4.5e-4,-1.81628 0.0799,-5.38567 0.17644,-7.93198 0.15897,-4.19063 0.2228,-4.642 0.67312,-4.75976 0.34837,-0.0911 0.4975,-0.38009 0.4975,-0.96407 0,-0.6744 -0.11122,-0.83397 -0.58129,-0.83397 h -0.58128 l 0.18274,-7.75035 c 0.79245,-33.60882 3.59931,-60.209096 6.73837,-63.85846 l 0.61451,-0.71441 2.27241,0.75431 c 1.24983,0.414871 3.27889,1.174453 4.50903,1.68796 2.01716,0.84204 2.19879,0.976776 1.85106,1.373172 -3.98426,4.54185 -6.84686,32.713378 -7.36534,72.484038 l -0.18011,13.81584 h -4.404 -4.40399 z m 8.62564,-13.13676 c 0,-0.96153 -0.18339,-1.01862 -3.70668,-1.15381 l -2.49359,-0.0957 v 0.87944 0.87944 l 1.81964,0.0943 c 4.73073,0.24518 4.38063,0.29343 4.38063,-0.60369 z"
       id="path29"
       transform="scale(0.26458333)" />
    <path
       style="fill:#00ffff;fill-opacity:0.38539043;stroke:#00ffff;stroke-width:0.401437;stroke-dasharray:1.51664, 0.37916;stroke-dashoffset:0;stroke-opacity:1"
       d="m 276.99063,175.93122 v -8.25417 h 4.31323 4.31324 l 7.1e-4,2.49359 c 3.9e-4,1.37148 0.0798,4.93591 0.17656,7.92098 l 0.17585,5.42738 -1.86142,0.16148 c -1.02378,0.0888 -3.04419,0.23875 -4.48979,0.33319 l -2.62838,0.17171 z"
       id="path30"
       transform="scale(0.26458333)" />
    <path
       style="fill:#00ffff;fill-opacity:0.46599495;stroke:#00ffff;stroke-width:0.401437;stroke-dasharray:1.51664, 0.37916;stroke-dashoffset:0;stroke-opacity:1"
       d="m 283.75003,246.76214 c -1.77819,-2.2606 -3.5866,-12.64288 -4.85366,-27.86541 -0.80689,-9.69409 -1.63153,-25.07568 -1.63466,-30.49079 l -0.002,-2.58954 4.20469,-0.1923 c 2.31258,-0.10577 4.26444,-0.13257 4.33745,-0.0596 0.073,0.073 0.24344,2.84123 0.37871,6.15157 1.19021,29.12718 3.74902,48.43271 6.89464,52.01822 0.34914,0.39796 0.18219,0.52622 -1.71627,1.31841 -2.0923,0.87307 -6.4712,2.41918 -6.85164,2.41918 -0.10969,0 -0.45068,-0.3194 -0.75776,-0.70978 z"
       id="path31"
       transform="scale(0.26458333)" />
    <path
       style="fill:#00ffff;fill-opacity:0.50629723;stroke:#00ffff;stroke-width:0.401437;stroke-dasharray:1.51664, 0.37916;stroke-dashoffset:0;stroke-opacity:1"
       d="m 293.76449,241.47383 c -0.29615,-0.63014 -0.73421,-1.80498 -0.97346,-2.61075 -0.41395,-1.39417 -0.41042,-1.49197 0.0729,-2.02183 2.7837,-3.05186 4.78539,-18.33798 5.73701,-43.81125 l 0.33109,-8.86285 1.22768,-0.11023 c 0.67522,-0.0606 1.26879,-0.0804 1.31903,-0.0439 0.14283,0.10369 -0.47267,14.39346 -0.91615,21.27008 -1.07401,16.65324 -2.70057,29.23157 -4.45265,34.43254 -0.56581,1.67958 -1.23959,2.90391 -1.59809,2.90391 -0.11488,0 -0.45119,-0.51557 -0.74734,-1.1457 z"
       id="path32"
       transform="scale(0.26458333)" />
    <path
       style="fill:#00ffff;fill-opacity:0.450882;stroke:#00ffff;stroke-width:0.106;stroke-dasharray:none;stroke-dashoffset:0.5406;stroke-opacity:1"
       d="m 79.117753,42.038106 c 0,-1.859573 0.0049,-1.929029 0.134586,-1.887884 0.111522,0.0354 0.139626,-5.29e-4 0.163994,-0.209169 0.02611,-0.22379 0.01111,-0.251888 -0.134586,-0.251888 -0.154805,0 -0.164052,-0.02698 -0.165057,-0.481447 -5.3e-4,-0.264797 -0.03225,-1.556684 -0.07036,-2.870858 -0.218994,-7.550918 -0.740237,-12.155076 -1.50016,-13.250953 l -0.21174,-0.305349 0.182882,-0.550559 c 0.100587,-0.302808 0.230619,-0.614753 0.288962,-0.693211 0.104876,-0.141036 0.107604,-0.140635 0.240898,0.03541 0.537403,0.709768 1.087972,4.254061 1.423781,9.165597 0.219097,3.204472 0.399135,8.709319 0.299366,9.153359 -0.03872,0.172341 -0.04,0.297288 -0.003,0.297288 0.03584,0 0.06375,0.827471 0.06375,1.89013 v 1.890131 H 79.47444 79.117811 Z"
       id="path33" />
    <path
       style="fill:#00ffff;fill-opacity:0.57934511;stroke:#00ffff;stroke-width:0.401437;stroke-dasharray:1.51664, 0.37916;stroke-dashoffset:0;stroke-opacity:1"
       d="m 298.92455,181.25294 c 0.0943,-0.68782 0.17141,-4.02378 0.17141,-7.41324 v -6.16265 h 1.38859 1.38859 l -0.14903,7.16227 c -0.082,3.93924 -0.19126,7.19752 -0.24288,7.24061 -0.0516,0.0431 -0.68656,0.15602 -1.41098,0.25097 l -1.31711,0.17263 z"
       id="path34"
       transform="scale(0.26458333)" />
    <text
       xml:space="preserve"
       style="font-weight:bold;font-size:3.88056px;line-height:0;font-family:Palatino;-inkscape-font-specification:'Palatino Bold';fill:#000000;fill-opacity:1;stroke:#fdfdfd;stroke-width:0.106;stroke-dasharray:1.53561, 0.383902;stroke-dashoffset:0;stroke-opacity:0.831234"
       x="64.906342"
       y="14.957019"
       id="text34"><tspan
         sodipodi:role="line"
         id="tspan34"
         style="fill:#000000;fill-opacity:1;stroke:none;stroke-width:0.106"
         x="64.906342"
         y="14.957019">z</tspan></text>
    <text
       xml:space="preserve"
       style="font-weight:bold;font-size:3.88056px;line-height:0;font-family:Palatino;-inkscape-font-specification:'Palatino Bold';fill:#000000;fill-opacity:1;stroke:none;stroke-width:0.106;stroke-dasharray:1.53561, 0.383902;stroke-dashoffset:0;stroke-opacity:0.831234"
       x="37.089336"
       y="61.625359"
       id="text35"><tspan
         sodipodi:role="line"
         id="tspan35"
         style="stroke-width:0.106"
         x="37.089336"
         y="61.625359">x</tspan></text>
    <text
       xml:space="preserve"
       style="font-weight:bold;font-size:3.88056px;line-height:0;font-family:Palatino;-inkscape-font-specification:'Palatino Bold';fill:#000000;fill-opacity:1;stroke:none;stroke-width:0.106;stroke-dasharray:1.53561, 0.383902;stroke-dashoffset:0;stroke-opacity:0.831234"
       x="137.94382"
       y="47.31982"
       id="text36"><tspan
         sodipodi:role="line"
         id="tspan36"
         style="stroke-width:0.106"
         x="137.94382"
         y="47.31982">y</tspan></text>
    <ellipse
       style="fill:#000000;fill-opacity:1;stroke:none;stroke-width:0.106;stroke-dasharray:1.53561, 0.383902;stroke-dashoffset:0;stroke-opacity:0.831234"
       id="path36"
       cx="125.2835"
       cy="44.140228"
       rx="0.74891931"
       ry="0.78458214" />
    <text
       xml:space="preserve"
       style="font-weight:bold;font-size:3.88056px;line-height:0;font-family:Palatino;-inkscape-font-specification:'Palatino Bold';fill:#000000;fill-opacity:1;stroke:none;stroke-width:0.106;stroke-dasharray:1.53561, 0.383902;stroke-dashoffset:0;stroke-opacity:0.831234"
       x="125.60446"
       y="48.15382"
       id="text37"><tspan
         sodipodi:role="line"
         id="tspan37"
         style="stroke-width:0.106"
         x="125.60446"
         y="48.15382">q<tspan
   style="font-size:65%;baseline-shift:sub"
   id="tspan38">0</tspan></tspan></text>
    <text
       xml:space="preserve"
       style="font-weight:bold;font-size:3.88056px;line-height:0;font-family:Palatino;-inkscape-font-specification:'Palatino Bold';fill:#000000;fill-opacity:1;stroke:none;stroke-width:0.106;stroke-dasharray:1.53561, 0.383902;stroke-dashoffset:0;stroke-opacity:0.831234"
       x="70.057358"
       y="88.50119"
       id="text37-9"
       inkscape:export-filename="lineinf.png"
       inkscape:export-xdpi="96"
       inkscape:export-ydpi="96"><tspan
         sodipodi:role="line"
         id="tspan37-2"
         style="stroke-width:0.106"
         x="70.057358"
         y="88.50119">q<tspan
   style="font-size:65%;baseline-shift:sub"
   id="tspan38-4">0</tspan></tspan></text>
    <path
       style="fill:none;fill-opacity:1;stroke:#ee0606;stroke-width:0.302185;stroke-dasharray:none;stroke-dashoffset:0;stroke-opacity:1;marker-end:url(#Triangle-7)"
       d="M 68.013856,44.140228 H 122.99505"
       id="path38" />
    <text
       xml:space="preserve"
       style="font-weight:bold;font-size:3.88056px;line-height:0;font-family:Palatino;-inkscape-font-specification:'Palatino Bold';fill:#ff0000;fill-opacity:1;stroke:none;stroke-width:0.306001;stroke-dasharray:none;stroke-dashoffset:0;stroke-opacity:1"
       x="103.56484"
       y="47.739807"
       id="text39"><tspan
         sodipodi:role="line"
         id="tspan39"
         style="fill:#ff0000;fill-opacity:1;stroke:none;stroke-width:0.306"
         x="103.56484"
         y="47.739807">r</tspan></text>
    <path
       style="fill:#ff0000;fill-opacity:1;stroke:#ff9700;stroke-width:0.306001;stroke-dasharray:none;stroke-dashoffset:0;stroke-opacity:1;marker-end:url(#Triangle-7)"
       d="M 76.469882,20.242079 123.36951,42.695884"
       id="path39"
       sodipodi:nodetypes="cc" />
    <text
       xml:space="preserve"
       style="font-weight:bold;font-size:3.88056px;line-height:0;font-family:Palatino;-inkscape-font-specification:'Palatino Bold';fill:#ff9800;fill-opacity:0.666667;stroke:none;stroke-width:0.306001;stroke-dasharray:none;stroke-dashoffset:0;stroke-opacity:1"
       x="105.91318"
       y="33.077484"
       id="text40"><tspan
         sodipodi:role="line"
         id="tspan40"
         style="fill:#ff9800;fill-opacity:0.666667;stroke:none;stroke-width:0.306"
         x="105.91318"
         y="33.077484">d</tspan></text>
    <path
       style="fill:#ff9800;fill-opacity:0.666667;stroke:#ff0083;stroke-width:0.306001;stroke-dasharray:none;stroke-dashoffset:0;stroke-opacity:1;marker-end:url(#Triangle-7)"
       d="M 68.156507,44.140228 76.015968,21.382272"
       id="path40"
       sodipodi:nodetypes="cc" />
    <text
       xml:space="preserve"
       style="font-weight:bold;font-size:3.88056px;line-height:0;font-family:Palatino;-inkscape-font-specification:'Palatino Bold';fill:#ff0083;fill-opacity:1;stroke:none;stroke-width:0.306001;stroke-dasharray:none;stroke-dashoffset:0;stroke-opacity:1"
       x="73.701202"
       y="18.796907"
       id="text41"><tspan
         sodipodi:role="line"
         id="tspan41"
         style="fill:#ff0083;fill-opacity:1;stroke:none;stroke-width:0.306"
         x="73.701202"
         y="18.796907">R</tspan></text>
    <path
       style="fill:none;stroke:#4300ff;stroke-width:0.306001;stroke-opacity:1"
       d="m 68.099503,33.954931 c 0.805902,-0.719041 3.056158,-0.222097 3.180769,0.559278"
       id="path41"
       sodipodi:nodetypes="cc" />
    <path
       style="fill:none;stroke:#0e8b3f;stroke-width:0.306001;stroke-opacity:1"
       d="m 69.975992,39.158694 c 0.719041,0.805902 1.933913,2.958923 1.794468,4.831012"
       id="path41-1"
       sodipodi:nodetypes="cc" />
    <text
       xml:space="preserve"
       style="font-weight:bold;font-size:3.88056px;line-height:0;font-family:Palatino;-inkscape-font-specification:'Palatino Bold';fill:#000aff;fill-opacity:1;stroke:none;stroke-width:0.306001;stroke-dasharray:none;stroke-dashoffset:0;stroke-opacity:1"
       x="68.788704"
       y="32.310516"
       id="text42"><tspan
         sodipodi:role="line"
         id="tspan42"
         style="fill:#000aff;fill-opacity:1;stroke:none;stroke-width:0.306"
         x="68.788704"
         y="32.310516">φ</tspan></text>
    <text
       xml:space="preserve"
       style="font-weight:bold;font-size:3.88056px;line-height:0;font-family:Palatino;-inkscape-font-specification:'Palatino Bold';fill:#000000;fill-opacity:1;stroke:none;stroke-width:0.306001;stroke-dasharray:none;stroke-dashoffset:0;stroke-opacity:1"
       x="174.34032"
       y="12.997791"
       id="text42-8"
       inkscape:export-filename="chargesurf.png"
       inkscape:export-xdpi="96"
       inkscape:export-ydpi="96"><tspan
         sodipodi:role="line"
         id="tspan42-2"
         style="fill:#000000;fill-opacity:1;stroke:none;stroke-width:0.306"
         x="174.34032"
         y="12.997791">φ(r)</tspan></text>
    <text
       xml:space="preserve"
       style="font-weight:bold;font-size:3.88056px;line-height:0;font-family:Palatino;-inkscape-font-specification:'Palatino Bold';fill:#0e8b3f;fill-opacity:1;stroke:none;stroke-width:0.306001;stroke-dasharray:none;stroke-dashoffset:0;stroke-opacity:1"
       x="69.002815"
       y="47.868095"
       id="text43"><tspan
         sodipodi:role="line"
         id="tspan43"
         style="fill:#0e8b3f;fill-opacity:1;stroke:none;stroke-width:0.306"
         x="69.002815"
         y="47.868095">θ</tspan></text>
    <path
       style="fill:none;fill-opacity:1;stroke:#000000;stroke-width:0.306001;stroke-dasharray:none;stroke-dashoffset:0;stroke-opacity:1;marker-end:url(#Triangle-3);marker-start:url(#Triangle)"
       d="m 183.38111,14.020888 0.20174,39.742662 55.88181,-0.504349"
       id="path43" />
    <text
       xml:space="preserve"
       style="font-weight:bold;font-size:3.88056px;line-height:0;font-family:Palatino;-inkscape-font-specification:'Palatino Bold';fill:#000000;fill-opacity:1;stroke:none;stroke-width:0.306001;stroke-dasharray:none;stroke-dashoffset:0;stroke-opacity:1"
       x="241.88553"
       y="56.043797"
       id="text44"><tspan
         sodipodi:role="line"
         id="tspan44"
         style="stroke:none;stroke-width:0.306"
         x="241.88553"
         y="56.043797">r</tspan></text>
    <path
       style="fill:#000000;fill-opacity:1;stroke:#000000;stroke-width:0.306001;stroke-dasharray:none;stroke-dashoffset:0;stroke-opacity:1"
       d="m 183.38111,30.286436 h 25.41916"
       id="path44" />
    <path
       style="fill:none;fill-opacity:1;stroke:#000000;stroke-width:0.306001;stroke-dasharray:none;stroke-dashoffset:0;stroke-opacity:1"
       d="m 208.95327,30.133435 c 0,0 2.5434,7.331597 14.43902,14.408943 11.89561,7.077346 15.15704,7.08539 15.15704,7.08539"
       id="path44-76"
       sodipodi:nodetypes="czc" />
    <path
       style="fill:#000000;fill-opacity:1;stroke:#000000;stroke-width:0.294;stroke-dasharray:1.176,0.294;stroke-dashoffset:0;stroke-opacity:1"
       d="m 208.95327,30.133435 v 23.40114"
       id="path44-7" />
    <text
       xml:space="preserve"
       style="font-weight:bold;font-size:3.88056px;line-height:0;font-family:Palatino;-inkscape-font-specification:'Palatino Bold';fill:#000000;fill-opacity:1;stroke:none;stroke-width:0.294;stroke-dasharray:none;stroke-dashoffset:0;stroke-opacity:1"
       x="207.64885"
       y="57.488468"
       id="text45"><tspan
         sodipodi:role="line"
         id="tspan45"
         style="stroke:none;stroke-width:0.294;stroke-dasharray:none"
         x="207.64885"
         y="57.488468">R</tspan></text>
    <text
       xml:space="preserve"
       style="font-weight:bold;font-size:3.88056px;line-height:0;font-family:Palatino;-inkscape-font-specification:'Palatino Bold';fill:#000000;fill-opacity:1;stroke:none;stroke-width:0.294;stroke-dasharray:none;stroke-dashoffset:0;stroke-opacity:1"
       x="223.4276"
       y="39.550072"
       id="text46"><tspan
         sodipodi:role="line"
         id="tspan46"
         style="stroke-width:0.294;fill:#000000;fill-opacity:1"
         x="223.4276"
         y="39.550072" /></text>
    <text
       xml:space="preserve"
       style="font-weight:bold;font-size:3.88056px;line-height:0;font-family:Palatino;-inkscape-font-specification:'Palatino Bold';fill:#000000;fill-opacity:1;stroke:none;stroke-width:0.294;stroke-dasharray:none;stroke-dashoffset:0;stroke-opacity:1"
       x="222.61943"
       y="41.383041"
       id="text47"><tspan
         sodipodi:role="line"
         id="tspan47"
         style="stroke-width:0.294"
         x="222.61943"
         y="41.383041">~c/r</tspan></text>
    <path
       style="fill:#000000;fill-opacity:1;stroke:#000000;stroke-width:0.33735;stroke-dasharray:none;stroke-dashoffset:0;stroke-opacity:1;marker-end:url(#Triangle-7)"
       d="m 50.698908,113.11937 55.419852,0.15914"
       id="path47" />
    <path
       style="fill:#ff0007;fill-opacity:1;stroke:#ff0000;stroke-width:0.331201;stroke-dasharray:none;stroke-dashoffset:0;stroke-opacity:1"
       d="m 47.982678,113.11975 53.398282,0.1592"
       id="path47-8" />
    <path
       style="fill:#ff0007;fill-opacity:1;stroke:#ff0000;stroke-width:0.38971;stroke-dasharray:1.55884, 0.38971;stroke-dashoffset:0;stroke-opacity:1"
       d="m 101.97286,113.22313 12.59972,-0.0238"
       id="path47-8-9"
       sodipodi:nodetypes="cc" />
    <path
       style="fill:#ff0007;fill-opacity:1;stroke:#ff0000;stroke-width:0.38971;stroke-dasharray:1.55884, 0.38971;stroke-dashoffset:0;stroke-opacity:1"
       d="m 34.719384,113.1728 12.59972,-0.0238"
       id="path47-8-9-1"
       sodipodi:nodetypes="cc" />
    <path
       style="fill:#000000;fill-opacity:1;stroke:#000000;stroke-width:0.394;stroke-dasharray:none;stroke-dashoffset:0;stroke-opacity:1;marker-end:url(#Triangle-7-4)"
       d="m 68.320995,113.19894 0.07957,-37.797767"
       id="path47-5"
       sodipodi:nodetypes="cc" />
    <path
       style="fill:#000000;fill-opacity:1;stroke:#00b3ff;stroke-width:0.394;stroke-dasharray:none;stroke-dashoffset:0;stroke-opacity:1;marker-end:url(#Triangle-7-4-6)"
       d="m 68.320995,113.19894 0.04716,-22.400712"
       id="path47-5-1"
       sodipodi:nodetypes="cc" />
    <path
       style="fill:#000000;fill-opacity:1;stroke:#0090ff;stroke-width:0.394;stroke-dasharray:none;stroke-dashoffset:0;stroke-opacity:1;marker-end:url(#Triangle-7-4-6-4)"
       d="M 93.876266,111.82048 70.063867,90.053528"
       id="path47-5-1-9"
       sodipodi:nodetypes="cc" />
    <text
       xml:space="preserve"
       style="font-weight:bold;font-size:3.88056px;line-height:0;font-family:Palatino;-inkscape-font-specification:'Palatino Bold';fill:#000000;fill-opacity:1;stroke:none;stroke-width:0.393999;stroke-dasharray:none;stroke-dashoffset:0;stroke-opacity:1"
       x="108.05836"
       y="116.27455"
       id="text48"><tspan
         sodipodi:role="line"
         id="tspan48"
         style="stroke:none;stroke-width:0.394"
         x="108.05836"
         y="116.27455">z</tspan></text>
    <path
       style="fill:none;fill-opacity:1;stroke:#00b2e4;stroke-width:0.393999;stroke-dasharray:none;stroke-dashoffset:0;stroke-opacity:1;marker-end:url(#Triangle)"
       d="m 188.33287,94.867052 h -15.4395"
       id="path66" />
    <ellipse
       style="fill:#000000;fill-opacity:1;stroke:none;stroke-width:0.393999;stroke-dasharray:none;stroke-dashoffset:0;stroke-opacity:1"
       id="path48"
       cx="68.399094"
       cy="88.693443"
       rx="0.58718538"
       ry="0.60626799" />
    <text
       xml:space="preserve"
       style="font-weight:bold;font-size:3.88056px;line-height:0;font-family:Palatino;-inkscape-font-specification:'Palatino Bold';fill:#00b3ff;fill-opacity:1;stroke:none;stroke-width:0.393999;stroke-dasharray:none;stroke-dashoffset:0;stroke-opacity:1"
       x="65.300148"
       y="101.29923"
       id="text49"><tspan
         sodipodi:role="line"
         id="tspan49"
         style="fill:#00b3ff;fill-opacity:1;stroke:none;stroke-width:0.394"
         x="65.300148"
         y="101.29923">r</tspan></text>
    <rect
       style="fill:none;fill-opacity:1;stroke:#0090ff;stroke-width:0.393999;stroke-dasharray:1.55884, 0.38971;stroke-dashoffset:0;stroke-opacity:1"
       id="rect49"
       width="5.5277376"
       height="2.6508861"
       x="91.112396"
       y="111.82048" />
    <text
       xml:space="preserve"
       style="font-weight:bold;font-size:3.88056px;line-height:0;font-family:Palatino;-inkscape-font-specification:'Palatino Bold';fill:#0090ff;fill-opacity:1;stroke:none;stroke-width:0.393999;stroke-dasharray:1.55884, 0.38971;stroke-dashoffset:0;stroke-opacity:1"
       x="96.6306"
       y="117.45941"
       id="text50"><tspan
         sodipodi:role="line"
         id="tspan50"
         style="fill:#0090ff;fill-opacity:1;stroke:none;stroke-width:0.394"
         x="96.6306"
         y="117.45941">dq</tspan></text>
    <text
       xml:space="preserve"
       style="font-weight:bold;font-size:3.88056px;line-height:0;font-family:Palatino;-inkscape-font-specification:'Palatino Bold';fill:#ff0000;fill-opacity:1;stroke:none;stroke-width:0.393999;stroke-dasharray:1.55884, 0.38971;stroke-dashoffset:0;stroke-opacity:1"
       x="75.997307"
       y="117.26555"
       id="text51"><tspan
         sodipodi:role="line"
         id="tspan51"
         style="fill:#ff0000;fill-opacity:1;stroke-width:0.394"
         x="75.997307"
         y="117.26555">λ</tspan></text>
    <text
       xml:space="preserve"
       style="font-weight:bold;font-size:3.88056px;line-height:0;font-family:Palatino;-inkscape-font-specification:'Palatino Bold';fill:#0090ff;fill-opacity:1;stroke:none;stroke-width:0.393999;stroke-dasharray:1.55884, 0.38971;stroke-dashoffset:0;stroke-opacity:1"
       x="83.094383"
       y="99.927231"
       id="text52"><tspan
         sodipodi:role="line"
         id="tspan52"
         style="fill:#0090ff;fill-opacity:1;stroke-width:0.394"
         x="83.094383"
         y="99.927231">d</tspan></text>
    <path
       style="fill:#0090ff;fill-opacity:1;stroke:#000000;stroke-width:0.393999;stroke-dasharray:none;stroke-dashoffset:0;stroke-opacity:1;marker-start:url(#Stop);marker-end:url(#marker53)"
       d="m 68.366684,119.18516 25.642497,0"
       id="path52"
       sodipodi:nodetypes="cc" />
    <text
       xml:space="preserve"
       style="font-weight:bold;font-size:3.88056px;line-height:0;font-family:Palatino;-inkscape-font-specification:'Palatino Bold';fill:#0090ff;fill-opacity:1;stroke:#000000;stroke-width:0.393999;stroke-dasharray:none;stroke-dashoffset:0;stroke-opacity:1"
       x="80.587936"
       y="122.82277"
       id="text53"><tspan
         sodipodi:role="line"
         id="tspan53"
         style="fill:#000000;fill-opacity:1;stroke:none;stroke-width:0.394"
         x="80.587936"
         y="122.82277">z</tspan></text>
    <path
       style="fill:none;stroke:#000000;stroke-width:0.371379"
       d="M 215.26724,81.390541 V 110.76878 H 181.04979"
       id="path69" />
    <path
       style="fill:none;stroke:#000000;stroke-width:0.371379"
       d="m 181.04979,81.390541 h 34.21745"
       id="rect56" />
    <path
       style="fill:none;fill-opacity:1;stroke:#000000;stroke-width:0.393999;stroke-dasharray:none;stroke-dashoffset:0;stroke-opacity:1"
       d="m 196.69591,74.643577 26.9833,-0.302609 -8.42329,7.06088"
       id="path68" />
    <path
       style="fill:none;fill-opacity:1;stroke:#000000;stroke-width:0.393999;stroke-dasharray:none;stroke-dashoffset:0;stroke-opacity:1"
       d="m 224.01994,74.137875 0.0113,29.366925"
       id="path57" />
    <path
       style="fill:none;fill-opacity:1;stroke:#000000;stroke-width:0.393999;stroke-dasharray:1.576, 0.393999;stroke-dashoffset:0;stroke-opacity:1"
       d="m 196.70721,104.0105 27.32403,-0.5057"
       id="path71" />
    <path
       style="fill:#00d6e7;fill-opacity:0.483627;stroke:#000000;stroke-width:0.393999;stroke-dasharray:none;stroke-dashoffset:0;stroke-opacity:1"
       d="M 181.04979,110.76878 V 81.390541"
       id="path6" />
    <path
       style="fill:#00d6e7;fill-opacity:0.483627;stroke:#000000;stroke-width:0.393999;stroke-dasharray:none;stroke-dashoffset:0;stroke-opacity:1"
       d="m 181.06109,81.401848 15.63482,-6.758271"
       id="path5" />
    <path
       style="fill:#00d6e7;fill-opacity:0.483627;stroke:#000000;stroke-width:0.393999;stroke-dasharray:1.576, 0.393999;stroke-dashoffset:0;stroke-opacity:1"
       d="m 196.69591,74.643577 0.0113,29.366923"
       id="path4" />
    <path
       style="fill:#00d6e7;fill-opacity:0.483627;stroke:#000000;stroke-width:0.393999;stroke-dasharray:none;stroke-dashoffset:0;stroke-opacity:1"
       d="m 181.04979,110.76877 15.65742,-6.75827"
       id="path58" />
    <path
       style="fill:none;fill-opacity:1;stroke:#000000;stroke-width:0.393999;stroke-dasharray:none;stroke-dashoffset:0;stroke-opacity:1"
       d="m 215.26724,110.76877 8.764,-7.26397"
       id="path59" />
    <circle
       style="fill:#000000;fill-opacity:1;stroke:#000000;stroke-width:0.393999;stroke-dasharray:none;stroke-dashoffset:0;stroke-opacity:1"
       id="path60"
       cx="202.60558"
       cy="93.900215"
       r="0.74891931" />
    <text
       xml:space="preserve"
       style="font-weight:bold;font-size:3.88056px;line-height:0;font-family:Palatino;-inkscape-font-specification:'Palatino Bold';fill:#000000;fill-opacity:1;stroke:#000000;stroke-width:0.393999;stroke-dasharray:none;stroke-dashoffset:0;stroke-opacity:1"
       x="203.70605"
       y="96.58429"
       id="text60"><tspan
         sodipodi:role="line"
         id="tspan60"
         style="stroke:none;stroke-width:0.394"
         x="203.70605"
         y="96.58429">x<tspan
   style="font-size:65%;baseline-shift:sub;stroke:none"
   id="tspan61">0</tspan></tspan></text>
    <text
       xml:space="preserve"
       style="font-weight:bold;font-size:3.88056px;line-height:0;font-family:Palatino;-inkscape-font-specification:'Palatino Bold';fill:#000000;fill-opacity:1;stroke:none;stroke-width:0.393999;stroke-dasharray:none;stroke-dashoffset:0;stroke-opacity:1"
       x="198.06752"
       y="115.76152"
       id="text62"><tspan
         sodipodi:role="line"
         id="tspan62"
         style="stroke-width:0.394"
         x="198.06752"
         y="115.76152">Δy</tspan><tspan
         sodipodi:role="line"
         style="stroke-width:0.394"
         x="198.06752"
         y="115.76152"
         id="tspan63" /></text>
    <text
       xml:space="preserve"
       style="font-weight:bold;font-size:3.88056px;line-height:0;font-family:Palatino;-inkscape-font-specification:'Palatino Bold';fill:#000000;fill-opacity:1;stroke:none;stroke-width:0.393999;stroke-dasharray:none;stroke-dashoffset:0;stroke-opacity:1"
       x="219.6189"
       y="110.92044"
       id="text62-3"><tspan
         sodipodi:role="line"
         id="tspan62-7"
         style="stroke-width:0.394"
         x="219.6189"
         y="110.92044">Δx</tspan><tspan
         sodipodi:role="line"
         style="stroke-width:0.394"
         x="219.6189"
         y="110.92044"
         id="tspan64" /><tspan
         sodipodi:role="line"
         style="stroke-width:0.394"
         x="219.6189"
         y="110.92044"
         id="tspan63-4" /></text>
    <g
       id="g1"
       transform="translate(-7.7219758,-26.940183)" />
    <path
       style="fill:#00d6e7;fill-opacity:0.4836272;stroke:none;stroke-width:0.401437;stroke-dasharray:none;stroke-dashoffset:0;stroke-opacity:1"
       d="m 814.52767,404.655 v -12.01573 h 2.29141 2.29141 v -0.98059 -0.98059 l -2.29141,0.18592 -2.29141,0.18592 v -41.5021 -41.50209 l 8.82866,-7.39542 c 4.85576,-4.06748 11.89202,-9.9672 15.63614,-13.11048 l 6.80748,-5.71506 -0.068,54.26154 -0.068,54.26154 -1.55007,0.0808 c -1.5104,0.0788 -1.55007,0.10077 -1.55007,0.85905 0,0.65286 0.1218,0.7918 0.75621,0.86267 0.66801,0.0746 -0.87493,1.43646 -13.22904,11.6763 -7.6919,6.3755 -14.3403,11.87356 -14.77423,12.21791 l -0.78898,0.62608 z m 11.25485,-12.28369 c 0.7934,-10e-4 0.87613,-0.078 0.87613,-0.81035 v -0.80873 h -3.26637 c -3.25579,0 -3.26584,0.002 -3.10382,0.60655 0.0894,0.3336 0.16421,0.77617 0.16623,0.98348 0.003,0.30623 0.42079,0.34445 2.2277,0.20379 1.2232,-0.0952 2.61826,-0.17385 3.10013,-0.17474 z m 8.15472,-0.98509 v -0.98348 l -2.22402,0.17313 c -1.2232,0.0952 -2.61827,0.17386 -3.10014,0.17475 -0.79339,10e-4 -0.87612,0.078 -0.87612,0.81034 v 0.80873 h 3.10014 3.10014 z m 6.51052,0.7139 c 0.97321,0 1.03764,-0.0502 1.03764,-0.80874 v -0.80873 h -3.10014 -3.10014 v 0.98308 0.98308 l 2.0625,-0.17435 c 1.13438,-0.0959 2.52944,-0.17434 3.10014,-0.17434 z"
       id="path64"
       transform="scale(0.26458333)" />
    <path
       style="fill:#00d6e7;fill-opacity:0.483627;stroke:none;stroke-width:0.145541;stroke-dasharray:none;stroke-dashoffset:0;stroke-opacity:1"
       d="M 181.24679,107.57973 V 92.954117 l -0.1857,-11.552269 6.73929,-2.63572 c 1.59097,-0.622223 3.68,-2.073749 5.61323,-2.703751 l 3.32075,-1.082171 -0.0337,14.401184 -0.0337,14.40119 -0.76767,0.0215 c -0.74803,0.0209 -0.76766,0.0268 -0.76766,0.22801 0,0.17327 0.0602,0.21014 0.37451,0.22895 0.33082,0.0198 -0.43333,0.38125 -6.55169,3.09893 -3.80942,1.69208 -7.10202,3.15128 -7.31692,3.24266 l -0.39074,0.16617 z m 5.57396,-3.26012 c 0.39293,-2.7e-4 0.4339,-0.0207 0.4339,-0.21507 v -0.21464 h -1.61766 c -2.0821,0 -4.4728,0.43443 1.18385,0.42969 z m 4.03862,-0.26145 v -0.26101 l -1.10144,0.046 c -0.6058,0.0253 -1.2967,0.0462 -1.53535,0.0464 -0.39292,2.6e-4 -0.4339,0.0207 -0.4339,0.21507 v 0.21464 h 1.53533 1.53536 z m 3.22432,0.18948 c 0.48199,0 0.5139,-0.0134 0.5139,-0.21465 v -0.21464 h -1.53535 -1.53533 v 0.26091 0.26091 l 1.02145,-0.0463 c 0.5618,-0.0255 1.2527,-0.0463 1.53533,-0.0463 z"
       id="path64-2"
       sodipodi:nodetypes="cccssccccsssscccscsccccscscccccscccccccc" />
    <path
       style="fill:#00d6e7;fill-opacity:0.483627;stroke:#000000;stroke-width:0.393999;stroke-dasharray:none;stroke-dashoffset:0;stroke-opacity:1;marker-end:url(#Triangle)"
       d="m 219.6475,92.405125 21.00524,-0.395039"
       id="path65" />
    <path
       style="fill:none;fill-opacity:1;stroke:#00b2e4;stroke-width:0.393999;stroke-dasharray:none;stroke-dashoffset:0;stroke-opacity:1;marker-end:url(#Triangle-38)"
       d="m 220.04092,90.033945 h 15.4395"
       id="path66-6" />
    <text
       xml:space="preserve"
       style="font-weight:bold;font-size:3.88056px;line-height:0;font-family:Palatino;-inkscape-font-specification:'Palatino Bold';fill:#00d6e7;fill-opacity:0.483627;stroke:#000000;stroke-width:0.393999;stroke-dasharray:none;stroke-dashoffset:0;stroke-opacity:1"
       x="242.18434"
       y="96.21608"
       id="text65"><tspan
         sodipodi:role="line"
         id="tspan65"
         style="fill:#000000;fill-opacity:1;stroke:none;stroke-width:0.394"
         x="242.18434"
         y="96.21608">dA</tspan></text>
    <text
       xml:space="preserve"
       style="font-weight:bold;font-size:3.88056px;line-height:0;font-family:Palatino;-inkscape-font-specification:'Palatino Bold';fill:#00b2e4;fill-opacity:1;stroke:none;stroke-width:0.393999;stroke-dasharray:none;stroke-dashoffset:0;stroke-opacity:1"
       x="231.52304"
       y="87.477921"
       id="text66"><tspan
         sodipodi:role="line"
         id="tspan66"
         style="fill:#00b2e4;fill-opacity:1;stroke:none;stroke-width:0.394"
         x="231.52304"
         y="87.477921">E</tspan></text>
    <text
       xml:space="preserve"
       style="font-weight:bold;font-size:3.88056px;line-height:0;font-family:Palatino;-inkscape-font-specification:'Palatino Bold';fill:#000000;fill-opacity:1;stroke:none;stroke-width:0.393999;stroke-dasharray:none;stroke-dashoffset:0;stroke-opacity:1"
       x="198.06752"
       y="115.76152"
       id="text62-34"
       transform="translate(-7.7219757,-26.940182)"><tspan
         sodipodi:role="line"
         id="tspan62-3"
         style="stroke-width:0.394"
         x="198.06752"
         y="115.76152">Δz</tspan><tspan
         sodipodi:role="line"
         style="stroke-width:0.394"
         x="198.06752"
         y="115.76152"
         id="tspan63-0" /></text>
    <path
       style="fill:#00d6e7;fill-opacity:0.483627;stroke-width:0.401437;stroke-dasharray:none"
       d="m 709.9317,393.5987 c 0,-0.28779 0.091,-0.57658 0.20218,-0.64177 0.1112,-0.0652 2.6587,-0.20614 5.66112,-0.3132 l 5.45894,-0.19468 v 0.83645 0.83644 h -5.66112 c -5.42403,0 -5.66112,-0.0219 -5.66112,-0.52324 z"
       id="path15"
       transform="scale(0.26458333)" />
    <path
       style="fill:#00d6e7;fill-opacity:0.483627;stroke-width:0.401437;stroke-dasharray:none"
       d="m 726.71288,392.30332 c 1.59387,-0.0477 4.20203,-0.0477 5.79591,0 1.59388,0.0477 0.2898,0.0867 -2.89796,0.0867 -3.18775,0 -4.49183,-0.039 -2.89795,-0.0867 z"
       id="path16"
       transform="scale(0.26458333)" />
    <path
       style="fill:#00d6e7;fill-opacity:0.483627;stroke-width:0.401437;stroke-dasharray:none"
       d="m 723.94971,393.35542 v -0.85094 h 5.66112 5.66113 v 0.67394 c 0,0.63318 -0.0856,0.674 -1.41528,0.67484 -0.77841,5e-4 -3.32591,0.0802 -5.66113,0.177 l -4.24584,0.17609 z"
       id="path17"
       transform="scale(0.26458333)" />
    <path
       style="fill:#00d6e7;fill-opacity:0.483627;stroke-width:0.401437;stroke-dasharray:none"
       d="m 737.80059,393.46091 c -0.29287,-0.76321 0.2014,-0.95641 2.40706,-0.9409 l 2.2081,0.0155 -1.44985,0.65841 c -1.63336,0.74175 -2.9408,0.85202 -3.16531,0.26696 z"
       id="path18"
       transform="scale(0.26458333)" />
    <path
       style="fill:#00d6e7;fill-opacity:0.483627;stroke-width:0.401437;stroke-dasharray:none"
       d="m 696.08359,393.78497 c -0.0894,-0.3336 -0.16421,-0.69753 -0.16623,-0.80873 -0.002,-0.1112 2.60448,-0.20218 5.79223,-0.20218 h 5.79591 v 0.63215 c 0,0.62367 -0.0494,0.63452 -3.68192,0.80873 -2.02505,0.0971 -4.55841,0.17658 -5.62968,0.17658 -1.79202,0 -1.96076,-0.0485 -2.11031,-0.60655 z"
       id="path19"
       transform="scale(0.26458333)" />
    <path
       style="fill:#00d6e7;fill-opacity:0.483627;stroke-width:0.401437;stroke-dasharray:none"
       d="m 685.13059,393.75854 c 0,-0.61365 0.0877,-0.63834 2.8725,-0.80873 1.57987,-0.0967 3.46017,-0.17575 4.17844,-0.17575 1.27134,0 1.30595,0.0214 1.30595,0.80873 v 0.80873 h -4.17844 -4.17845 z"
       id="path20"
       transform="scale(0.26458333)" />
    <path
       style="fill:#00d6e7;fill-opacity:0.483627;stroke-width:0.401437;stroke-dasharray:none"
       d=""
       id="path21"
       transform="scale(0.26458333)" />
    <path
       style="fill:#00d6e7;fill-opacity:0.483627;stroke-width:0.100359;stroke-dasharray:none"
       d="m 685.0295,393.76082 v -0.76548 l 0.79188,-0.0425 c 0.43554,-0.0234 1.29229,-0.0566 1.90389,-0.0737 l 1.11201,-0.0312 -1.27299,0.0916 c -1.88399,0.13561 -2.27505,0.20763 -2.40052,0.44207 -0.0368,0.0687 -0.0669,0.32409 -0.0669,0.56746 v 0.44249 h 4.21828 4.21828 l -0.023,-0.70443 c -0.015,-0.45996 -0.0533,-0.73477 -0.11043,-0.79188 -0.0632,-0.0632 -0.46453,-0.0977 -1.44897,-0.12448 -0.74885,-0.0204 -1.16441,-0.0432 -0.92348,-0.0508 0.24094,-0.008 0.91572,-0.0336 1.49952,-0.0578 l 1.06146,-0.044 v 0.95407 0.95407 h -4.27953 -4.27954 z"
       id="path25"
       transform="scale(0.26458333)" />
    <path
       style="fill:#00d6e7;fill-opacity:0.483627;stroke-width:0.0250898;stroke-dasharray:none"
       d="m 687.1103,392.98229 c 0.0232,-0.003 0.41723,-0.0328 0.87569,-0.0658 0.45847,-0.0331 0.83756,-0.0643 0.84243,-0.0693 0.005,-0.005 -0.14657,-0.004 -0.33654,10e-4 -0.18997,0.006 -0.57664,0.0179 -0.85928,0.0267 -0.28263,0.009 -0.66931,0.0196 -0.85927,0.024 -0.18997,0.004 0.63645,-0.0366 1.83649,-0.0913 2.38695,-0.10865 2.36472,-0.10783 2.35188,-0.0871 -0.0112,0.0182 0.19596,0.0361 0.41664,0.0361 0.30555,0 0.1585,0.0177 -0.28531,0.0343 -1.10255,0.0413 -2.13421,0.0926 -3.21294,0.1598 -0.5863,0.0365 -0.90405,0.0493 -0.76979,0.031 z"
       id="path27"
       transform="scale(0.26458333)" />
    <path
       style="fill:#00d6e7;fill-opacity:0.483627;stroke-width:0.0709646;stroke-dasharray:none"
       d="m 709.79704,393.68 c 0,-0.99575 -0.0737,-0.95987 2.07299,-1.00886 1.97822,-0.0451 3.93547,-0.11267 6.79083,-0.23429 1.19257,-0.0508 2.28089,-0.0926 2.41849,-0.0929 l 0.25019,-5.4e-4 v 0.9531 0.9531 h -5.76625 -5.76625 z m 11.48485,-0.39086 v -0.86516 l -0.82205,0.0311 c -0.45213,0.0171 -2.02295,0.0742 -3.49073,0.1269 -2.94803,0.10579 -5.30555,0.21537 -6.21847,0.28903 -0.70402,0.0568 -0.74043,0.0798 -0.81716,0.51538 -0.048,0.27268 -0.0442,0.31215 0.041,0.42694 0.21928,0.2953 0.78719,0.32297 6.83975,0.33331 l 4.46766,0.008 z"
       id="path28"
       transform="scale(0.26458333)" />
    <path
       style="fill:#00d6e7;fill-opacity:0.483627;stroke-width:0.0250898;stroke-dasharray:none"
       d="m 723.89074,393.36573 v -0.97524 l 5.79771,-1.5e-4 5.7977,-1.4e-4 -0.008,0.56681 c -0.009,0.63257 -0.0163,0.68286 -0.12103,0.80525 -0.0967,0.11299 -0.28122,0.17443 -0.62451,0.20794 -0.10193,0.01 -0.75397,0.0251 -1.44897,0.0338 -1.24522,0.0155 -1.68684,0.0261 -3.15069,0.0762 -1.07453,0.0367 -1.76213,0.0655 -4.03523,0.16861 -1.11664,0.0507 -2.07006,0.0921 -2.11871,0.0922 l -0.0885,4e-5 z m 2.28628,0.75664 c 3.60096,-0.14953 5.11468,-0.2047 6.48341,-0.2363 0.42627,-0.01 1.07831,-0.0249 1.44898,-0.0334 0.7023,-0.0161 0.827,-0.0289 0.96279,-0.0985 0.086,-0.0441 0.13346,-0.0972 0.16853,-0.18871 0.0242,-0.0632 0.03,-0.15488 0.0358,-0.56816 l 0.007,-0.49282 h -5.67107 -5.67106 v 0.85085 0.85086 h 0.1086 c 0.0597,0 1.01694,-0.0377 2.12713,-0.0838 z"
       id="path35"
       transform="scale(0.26458333)" />
    <path
       style="fill:#00d6e7;fill-opacity:0.483627;stroke-width:0.0501796;stroke-dasharray:none"
       d=""
       id="path37"
       transform="scale(0.26458333)" />
    <path
       style="fill:#00d6e7;fill-opacity:0.483627;stroke-width:0.0501796;stroke-dasharray:none"
       d="m 739.12919,394.08977 c -0.0284,-0.0167 -0.23666,-0.0474 -0.46279,-0.0682 -0.68887,-0.0634 -0.95866,-0.16323 -1.07324,-0.3972 -0.0806,-0.16464 -0.0889,-0.71617 -0.013,-0.86547 0.11326,-0.2227 0.4252,-0.30325 1.38159,-0.35674 0.99118,-0.0554 3.72196,-0.12336 3.73476,-0.0929 0.006,0.0147 0.17677,0.0267 0.3791,0.0267 h 0.36786 l -0.002,0.32855 c -0.002,0.36653 0.006,0.36963 -0.18309,-0.0679 l -0.084,-0.19429 -0.1097,0.0465 c -0.0603,0.0256 -0.94371,0.40672 -1.96305,0.84699 -1.01934,0.44028 -1.86851,0.80586 -1.88704,0.81241 -0.0185,0.007 -0.0569,-0.002 -0.0853,-0.0185 z m 0.27067,-0.33771 c 0.45295,-0.10038 1.02111,-0.29936 1.62218,-0.56813 1.09808,-0.491 1.37687,-0.62273 1.37687,-0.65059 0,-0.0408 -3.03318,-0.0353 -3.52136,0.006 -0.66213,0.0566 -1.01116,0.17411 -1.11538,0.37566 -0.10787,0.20859 0.008,0.65269 0.2034,0.78084 0.25874,0.16953 0.82227,0.19147 1.43429,0.0558 z"
       id="path42"
       transform="scale(0.26458333)" />
  </g>
</svg>
